<?xml version="1.0" standalone="no"?>
<!DOCTYPE svg PUBLIC "-//W3C//DTD SVG 20010904//EN"
 "http://www.w3.org/TR/2001/REC-SVG-20010904/DTD/svg10.dtd">
<svg version="1.0" xmlns="http://www.w3.org/2000/svg"
 width="512.000000pt" height="512.000000pt" viewBox="0 0 512.000000 512.000000"
 preserveAspectRatio="xMidYMid meet">
<metadata>
Created by potrace 1.14, written by Peter Selinger 2001-2017
</metadata>
<g transform="translate(0.000000,512.000000) scale(0.100000,-0.100000)"
fill="#000000" stroke="none">
<path d="M2378 5116 c-1 -2 -34 -6 -73 -10 -38 -3 -97 -10 -130 -16 -33 -6
-76 -13 -95 -16 -110 -17 -340 -85 -472 -139 -146 -59 -222 -103 -255 -146
-18 -24 -33 -47 -33 -53 0 -6 -21 -11 -48 -11 -72 -1 -92 -10 -193 -82 -181
-128 -375 -313 -520 -493 -250 -310 -447 -748 -514 -1140 -38 -223 -40 -345
-7 -408 l23 -43 -27 -55 c-25 -51 -26 -60 -20 -147 4 -50 9 -108 12 -127 11
-77 36 -208 51 -265 8 -33 16 -67 18 -76 7 -33 44 -148 80 -244 65 -173 187
-404 292 -550 24 -33 51 -71 60 -84 83 -115 292 -331 423 -437 177 -142 259
-188 330 -182 29 2 36 -1 50 -27 26 -52 81 -93 187 -140 358 -160 677 -225
1083 -220 118 2 226 5 240 8 14 3 48 8 76 11 298 33 786 205 861 302 31 42 51
108 47 158 -5 49 -26 94 -130 271 -45 77 -90 156 -101 175 -11 19 -71 123
-133 230 -62 107 -120 209 -130 225 -26 47 -200 346 -220 380 -10 17 -75 129
-145 250 -69 121 -131 227 -135 235 -66 113 -121 210 -125 221 -4 12 58 14
392 14 l398 0 5 -250 c5 -232 7 -253 27 -290 64 -118 197 -172 324 -130 109
37 176 132 180 260 2 89 26 122 69 95 13 -8 16 -59 20 -322 l5 -313 28 -47
c72 -124 245 -142 347 -38 61 62 62 74 62 579 l0 456 192 0 c178 1 194 2 238
24 57 27 102 81 118 140 34 127 -58 603 -165 856 -103 243 -186 392 -324 580
-209 284 -593 621 -730 640 -28 4 -54 4 -60 1 -5 -4 -20 12 -32 34 -33 57 -79
90 -214 148 -243 104 -477 167 -735 197 -57 7 -465 16 -472 11z"/>
</g>
</svg>
